<?xml version="1.0" encoding="UTF-8"?>
<svg enable-background="new 0 0 564 122" version="1.1" viewBox="0 0 564 122" xml:space="preserve" xmlns="http://www.w3.org/2000/svg">
<style type="text/css">
	.st0{fill:#FFFFFF;}
	.st1{fill:#00BED6;}
</style>
<path class="st0" d="m516.5 81.8c1.7 1.4 3.7 2.6 6 3.6 2.4 1 4.9 1.5 7.8 1.5 2 0 3.8-0.3 5.4-0.9s2.9-1.3 4-2.3 1.9-2.1 2.5-3.4c0.5-1.3 0.8-2.6 0.8-4 0-1.8-0.4-3.4-1.1-4.6s-1.7-2.3-2.9-3.1-2.5-1.5-4-2.1-2.9-1.1-4.4-1.7c-1.1-0.4-2.2-0.8-3.3-1.3-1.1-0.4-2-1-2.9-1.5-0.8-0.6-1.5-1.2-2-2s-0.7-1.7-0.7-2.8c0-0.8 0.2-1.7 0.5-2.5s0.9-1.6 1.6-2.2 1.6-1.1 2.6-1.5 2.3-0.6 3.8-0.6c1.9 0 3.6 0.3 5 1s2.7 1.5 4 2.4l1.9-2.4c-1.4-1.1-3-2.1-4.9-2.8s-3.9-1.1-5.8-1.1c-2 0-3.7 0.3-5.2 0.8s-2.8 1.2-3.8 2.2c-1 0.9-1.8 2-2.4 3.2-0.5 1.2-0.8 2.5-0.8 3.9 0 1.6 0.4 3 1.1 4.1s1.6 2.1 2.8 2.9c1.1 0.8 2.4 1.5 3.9 2.1 1.4 0.6 2.9 1.1 4.3 1.6 1.1 0.4 2.2 0.9 3.3 1.3 1.1 0.5 2.1 1 2.9 1.6 0.9 0.6 1.6 1.4 2.2 2.3 0.5 0.9 0.8 1.9 0.8 3.1 0 2-0.7 3.7-2.2 5.2s-3.7 2.2-6.7 2.2c-2.7 0-5-0.5-6.8-1.4s-3.6-2.1-5.2-3.4l-2.1 2.6zm-35.1-16.8c0.2-2.2 0.7-4.3 1.4-6.1 0.8-1.8 1.7-3.3 2.9-4.6s2.5-2.2 4-2.9 3-1 4.6-1c3.4 0 6.1 1.2 8.1 3.6s3 6.1 3 10.9h-24zm-2.2 10.6c0.9 2.4 2.2 4.5 3.7 6.2 1.6 1.7 3.4 3 5.5 3.9s4.4 1.3 6.8 1.3c2.8 0 5.1-0.4 6.9-1.2s3.5-1.6 5-2.5l-1.4-2.7c-1.4 1-2.9 1.9-4.6 2.5-1.6 0.6-3.5 0.9-5.5 0.9-2.1 0-4.1-0.4-5.8-1.2s-3.2-1.9-4.4-3.4c-1.2-1.4-2.2-3.2-2.9-5.2s-1-4.2-1.1-6.5h27.1c0.1-0.5 0.2-0.9 0.2-1.4v-1.4c0-5.5-1.3-9.8-3.8-12.9-2.6-3-6.1-4.5-10.6-4.5-2.1 0-4.1 0.5-6.1 1.4s-3.7 2.2-5.3 3.9c-1.5 1.7-2.8 3.8-3.7 6.2-0.9 2.5-1.4 5.2-1.4 8.3 0.1 3.1 0.5 5.8 1.4 8.3m-26.7 10.4h4.1l14-37.6h-3.6l-8.5 23.6c-0.6 1.8-1.3 3.7-1.9 5.5-0.7 1.8-1.3 3.6-1.9 5.3h-0.3c-0.6-1.7-1.2-3.5-1.9-5.3s-1.3-3.7-1.9-5.5l-8.5-23.6h-3.8l14.2 37.6zm-48.6-21c0.2-2.2 0.7-4.3 1.5-6.1s1.7-3.3 2.9-4.6 2.5-2.2 4-2.9 3-1 4.6-1c3.4 0 6.1 1.2 8.1 3.6s3 6.1 3 10.9h-24.1zm-2.2 10.6c0.9 2.4 2.2 4.5 3.7 6.2 1.6 1.7 3.4 3 5.5 3.9s4.4 1.3 6.8 1.3c2.8 0 5.1-0.4 6.9-1.2s3.5-1.6 5-2.5l-1.4-2.7c-1.4 1-2.9 1.9-4.6 2.5-1.6 0.6-3.5 0.9-5.5 0.9-2.1 0-4.1-0.4-5.8-1.2s-3.2-1.9-4.4-3.4c-1.2-1.4-2.2-3.2-2.9-5.2s-1-4.2-1.1-6.5h27.1c0.1-0.5 0.2-0.9 0.2-1.4v-1.4c0-5.5-1.3-9.8-3.8-12.9-2.6-3-6.1-4.5-10.6-4.5-2.1 0-4.1 0.5-6.1 1.4s-3.7 2.2-5.3 3.9c-1.5 1.7-2.8 3.8-3.7 6.2-0.9 2.5-1.4 5.2-1.4 8.3s0.5 5.8 1.4 8.3m-37.4-10.6c0.2-2.2 0.7-4.3 1.4-6.1 0.8-1.8 1.7-3.3 2.9-4.6s2.5-2.2 4-2.9 3-1 4.6-1c3.4 0 6.1 1.2 8.1 3.6s3 6.1 3 10.9h-24zm-2.2 10.6c0.9 2.4 2.2 4.5 3.7 6.2 1.6 1.7 3.4 3 5.5 3.9s4.4 1.3 6.8 1.3c2.8 0 5.1-0.4 6.9-1.2s3.5-1.6 5-2.5l-1.4-2.7c-1.4 1-2.9 1.9-4.6 2.5-1.6 0.6-3.5 0.9-5.5 0.9-2.1 0-4.1-0.4-5.8-1.2s-3.2-1.9-4.4-3.4c-1.2-1.4-2.2-3.2-2.9-5.2s-1-4.2-1.1-6.5h27.1c0.1-0.5 0.2-0.9 0.2-1.4v-1.4c0-5.5-1.3-9.8-3.8-12.9-2.6-3-6.1-4.5-10.6-4.5-2.1 0-4.1 0.5-6.1 1.4s-3.7 2.2-5.3 3.9c-1.5 1.7-2.8 3.8-3.7 6.2-0.9 2.5-1.4 5.2-1.4 8.3 0.1 3.1 0.5 5.8 1.4 8.3"/>
<path class="st1" d="m300.1 21.8c-8.5 0-15 6.1-15 14.2 0 6.6 5.7 13.2 9.4 17.5l1.5 1.5 1.6-0.8c7-3.6 16.5-8.6 16.5-18.8 0-7.9-5.9-13.6-14-13.6m-6.7 37.5c-7.6 4.6-17.3 9.8-17.3 21.1 0 11.5 8.9 19.8 21.3 19.8 10.5 0 17.1-6.3 22.1-12.5l1.4-1.7-25.9-27.6-1.6 0.9zm2.8 43.4c-11.6 0-20.9-6.7-22.8-16.6 0 0 2.4-3.5 2.4-5.5 0-4.5-1.4-8 0.7-11 3.4-4.7 8.9-8.1 14.5-11.5l2.4-1.5-1.8-2.1c-4.5-5.4-9.6-11.5-9.6-18.3 0-8 5.8-16.7 18.7-16.7 8.1 0 16.6 5.8 16.6 15.4 0 10.7-8.2 15.6-17.1 20.5l-2.7 1.5 25 27.4 13-21.9h3.7l-14.8 23.6 15.7 15.5h-4l-13.5-13.7-1.7 2.2c-6.7 9.2-13.2 12.7-24.7 12.7"/>
<path class="st0" d="m353.6 86-14.5-23.8c4.1-0.5 7.5-2.2 9.9-4.5 2.4-2.4 3.6-5.6 3.6-9.7 0-2.5-0.4-4.5-1.2-6.3-0.8-1.7-1.9-3.1-3.4-4.2s-3.2-1.9-5.3-2.4-4.4-0.7-7-0.7h-14.8v51.6h3.6v-23.7h11l14 23.7h4.1zm-29.2-26.7v-21.8h10.3c4.5 0 8 0.8 10.5 2.4s3.7 4.3 3.7 8.2c0 3.8-1.2 6.6-3.6 8.5s-5.9 2.8-10.5 2.8h-10.4z"/>
<path class="st0" d="m227 86h3.4v-28.3c4.1-4.7 7.9-7.1 11.3-7.1 2.9 0 5.1 1 6.4 2.9 1.4 1.9 2 4.9 2 8.9v23.6h3.4v-28.3c4.1-4.7 7.9-7.1 11.3-7.1 2.9 0 5 1 6.3 2.9 1.4 1.9 2 4.9 2 8.9v23.6h3.5v-24.1c0-9.6-3.8-14.4-11.3-14.4-2.2 0-4.3 0.7-6.4 2.1s-4.2 3.3-6.4 5.6c-0.7-2.4-1.8-4.2-3.4-5.6s-3.9-2.1-7-2.1c-2.1 0-4.2 0.6-6.2 1.9-2.1 1.3-3.9 2.9-5.6 4.8h-0.2l-0.3-5.8h-3v37.6zm-35.2-13.5c0.7-1.2 1.9-2.3 3.5-3.2s3.7-1.7 6.4-2.4c2.6-0.7 5.9-1.3 9.8-1.7v12.8c-2.4 2-4.5 3.5-6.5 4.5s-4.1 1.6-6.3 1.6c-2.1 0-4-0.6-5.6-1.7s-2.4-3.1-2.4-5.8c0-1.6 0.4-2.9 1.1-4.1m-3.8 8.7c0.6 1.3 1.4 2.4 2.4 3.2s2.2 1.5 3.5 1.9 2.7 0.6 4.2 0.6c2.5 0 4.9-0.6 7.1-1.8s4.3-2.5 6.2-4h0.2l0.4 4.9h2.9v-24c0-2-0.2-3.9-0.6-5.7s-1.1-3.3-2-4.6-2.2-2.3-3.7-3.1-3.4-1.1-5.6-1.1c-1.5 0-3 0.2-4.4 0.5s-2.7 0.7-3.9 1.2-2.2 1-3.2 1.6-1.8 1.1-2.5 1.6l1.6 2.6c1.3-0.9 2.9-1.9 5-2.9s4.4-1.5 7-1.5c1.8 0 3.3 0.4 4.5 1.1s2.1 1.6 2.7 2.7c0.7 1.1 1.1 2.4 1.3 3.8s0.3 2.9 0.3 4.3c-8.4 0.9-14.5 2.5-18.4 4.7s-5.9 5.4-5.9 9.5c0 1.7 0.3 3.2 0.9 4.5m-38.8 4.8h3.4v-28.3c2.3-2.4 4.4-4.1 6.2-5.3s3.9-1.8 6.1-1.8c3.1 0 5.3 1 6.6 2.9s2 4.9 2 8.9v23.6h3.4v-24.1c0-4.9-0.9-8.5-2.7-10.9s-4.7-3.5-8.6-3.5c-2.6 0-4.9 0.6-7 1.9-2 1.3-4.1 2.9-6 4.9v-23.3h-3.4v55zm-40.4 0h3.4v-28.3c2.3-2.4 4.4-4.1 6.2-5.3s3.9-1.8 6.1-1.8c3.1 0 5.3 1 6.6 2.9s2 4.9 2 8.9v23.6h3.4v-24.1c0-4.9-0.9-8.5-2.7-10.9s-4.7-3.5-8.6-3.5c-2.6 0-4.9 0.6-7 1.9-2 1.3-4 2.9-6 4.8h-0.2l-0.3-5.8h-3v37.6zm-37.5-21c0.2-2.2 0.7-4.3 1.4-6.1 0.8-1.8 1.7-3.3 2.9-4.6s2.5-2.2 4-2.9 3-1 4.6-1c3.4 0 6.1 1.2 8.1 3.6s3 6.1 3 10.9h-24zm-2.2 10.6c0.9 2.4 2.2 4.5 3.7 6.2 1.6 1.7 3.4 3 5.5 3.9s4.4 1.3 6.8 1.3c2.8 0 5.1-0.4 6.9-1.2s3.5-1.6 5-2.5l-1.4-2.7c-1.4 1-2.9 1.9-4.6 2.5-1.6 0.6-3.5 0.9-5.5 0.9-2.1 0-4.1-0.4-5.8-1.2s-3.2-1.9-4.4-3.4c-1.2-1.4-2.2-3.2-2.9-5.2s-1-4.2-1.1-6.5h27.1c0.1-0.5 0.2-0.9 0.2-1.4v-1.4c0-5.5-1.3-9.8-3.8-12.9-2.6-3-6.1-4.5-10.6-4.5-2.1 0-4.1 0.5-6.1 1.4s-3.7 2.2-5.3 3.9c-1.5 1.7-2.8 3.8-3.7 6.2-0.9 2.5-1.4 5.2-1.4 8.3 0.1 3.1 0.5 5.8 1.4 8.3m-39.5 7.4v-23h10.4c5.3 0 9.4 0.9 12.3 2.7s4.3 4.6 4.3 8.3c0 4.2-1.5 7.2-4.4 9.2-3 1.9-7 2.9-12.2 2.9h-10.4zm0-25.9v-19.7h9.3c4.8 0 8.4 0.7 10.8 2.2 2.5 1.5 3.7 3.9 3.7 7.2 0 3.4-1.1 6-3.4 7.7s-6.1 2.5-11.4 2.5h-9zm-3.6 28.9h15c2.9 0 5.6-0.3 7.9-0.9 2.4-0.6 4.4-1.6 6-2.8 1.7-1.3 3-2.8 3.9-4.7s1.4-4.1 1.4-6.6c0-3.6-1.1-6.4-3.3-8.5s-5.2-3.4-9-4v-0.3c3-0.8 5.3-2.2 6.9-4.2 1.5-2 2.3-4.4 2.3-7.1 0-4.3-1.5-7.5-4.6-9.5s-7.2-3-12.5-3h-14v51.6z"/>
</svg>
